<?xml version="1.0" standalone="no"?>
<!DOCTYPE svg PUBLIC "-//W3C//DTD SVG 20010904//EN"
 "http://www.w3.org/TR/2001/REC-SVG-20010904/DTD/svg10.dtd">
<svg version="1.0" xmlns="http://www.w3.org/2000/svg"
 width="200.000000pt" height="200.000000pt" viewBox="0 0 200.000000 200.000000"
 preserveAspectRatio="xMidYMid meet">
<metadata>
Created by potrace 1.11, written by Peter Selinger 2001-2013
</metadata>
<g transform="translate(0.000000,200.000000) scale(0.100000,-0.100000)"
fill="#000000" stroke="none">
<path d="M218 1893 c-2 -5 -4 -336 -3 -737 1 -647 2 -729 16 -740 9 -6 49 -41
90 -77 41 -36 118 -105 172 -153 l98 -86 472 0 c539 1 531 0 623 83 38 34 59
64 75 105 22 56 22 63 23 627 l1 570 -23 36 c-22 37 -80 69 -122 69 -14 0 -22
11 -30 39 -12 46 -69 100 -105 102 -14 1 -31 2 -37 3 -7 0 -16 21 -20 45 -4
24 -18 55 -30 69 -48 52 -45 52 -642 52 -305 0 -556 -3 -558 -7z m1127 -98
c19 -15 19 -31 19 -631 0 -593 -1 -617 -19 -630 -15 -12 -110 -14 -529 -14
l-511 0 1 642 c1 354 2 644 3 646 0 1 229 2 509 2 432 -1 510 -3 527 -15z
m180 -188 c3 -12 4 -276 3 -587 l-3 -565 -23 -31 c-13 -16 -37 -39 -54 -49
-30 -17 -61 -18 -510 -18 -515 1 -480 -3 -548 52 l-25 21 484 0 c467 0 486 1
527 20 77 38 74 17 75 637 0 301 3 551 5 555 9 14 64 -14 69 -35z m151 -121
c18 -14 19 -32 19 -578 l0 -563 -27 -46 c-28 -48 -83 -91 -132 -103 -16 -4
-227 -7 -469 -7 l-440 -1 -40 40 -40 40 442 1 c411 0 444 2 484 19 54 25 94
65 122 124 22 47 22 53 23 555 0 280 1 514 1 521 1 16 33 15 57 -2z"/>
</g>
</svg>
